<svg width="18" height="17" viewBox="0 0 18 17" fill="none" xmlns="http://www.w3.org/2000/svg">
<g id="iconmonstr-linkedin-3 1" clip-path="url(#clip0_1_1715)">
<path id="Vector" d="M13.7813 0.245605H3.77202C1.79804 0.245605 0.197266 1.76213 0.197266 3.63222V13.1147C0.197266 14.9848 1.79804 16.5014 3.77202 16.5014H13.7813C15.756 16.5014 17.3561 14.9848 17.3561 13.1147V3.63222C17.3561 1.76213 15.756 0.245605 13.7813 0.245605ZM5.91688 13.1147H3.77202V5.66419H5.91688V13.1147ZM4.84445 4.80534C4.15381 4.80534 3.59329 4.27026 3.59329 3.61054C3.59329 2.95083 4.15381 2.41575 4.84445 2.41575C5.5351 2.41575 6.09562 2.95083 6.09562 3.61054C6.09562 4.27026 5.53581 4.80534 4.84445 4.80534ZM14.4963 13.1147H12.3514V9.31902C12.3514 7.0378 9.49164 7.21051 9.49164 9.31902V13.1147H7.34678V5.66419H9.49164V6.85966C10.4897 5.10811 14.4963 4.97874 14.4963 8.53671V13.1147Z" fill="#E9EDFA"/>
</g>
<defs>
<clipPath id="clip0_1_1715">
<rect width="17.1588" height="16.2557" fill="white" transform="translate(0.197266 0.245605)"/>
</clipPath>
</defs>
</svg>
