<svg width="18" height="17" viewBox="0 0 18 17" fill="none" xmlns="http://www.w3.org/2000/svg">
<g id="free-icon-instagram-1384031 1" clip-path="url(#clip0_1_1718)">
<path id="Vector" d="M16.7434 2.9888C16.9546 3.50334 17.102 4.09714 17.1422 4.96087C17.1824 5.82783 17.1858 6.10408 17.1858 8.3111C17.1858 10.5181 17.1757 10.7944 17.1355 11.6613C17.0953 12.5251 16.9477 13.1158 16.7367 13.6334C16.2908 14.7258 15.3791 15.5895 14.226 16.0119C13.683 16.2119 13.0562 16.3516 12.1444 16.3897C11.2293 16.4279 10.9377 16.4373 8.6081 16.4373C6.27846 16.4373 5.98674 16.4279 5.07175 16.3897C4.1599 16.3516 3.53651 16.2119 2.99011 16.0119C2.42027 15.8087 1.90071 15.4879 1.47163 15.0751C1.03587 14.6686 0.697398 14.1796 0.479519 13.6334C0.268317 13.1189 0.120751 12.5251 0.0805533 11.6613C0.0403556 10.7944 0.0302734 10.5181 0.0302734 8.3111C0.0302734 6.10408 0.0403556 5.82783 0.0839576 4.95765C0.124155 4.09392 0.271591 3.50334 0.482792 2.98569C0.697398 2.44585 1.03587 1.95363 1.47163 1.54714C1.90071 1.13109 2.41686 0.81353 2.99351 0.607117C3.53651 0.407156 4.1633 0.267356 5.07502 0.229274C5.99014 0.191192 6.28174 0.181641 8.61137 0.181641C10.941 0.181641 11.2326 0.191192 12.1511 0.232499C13.0628 0.270581 13.6864 0.410257 14.2326 0.610343C14.8025 0.813529 15.322 1.13431 15.7511 1.54714C16.1903 1.95363 16.5255 2.44262 16.7434 2.9888Z" fill="#E9EDFA"/>
<path id="Vector_2" d="M8.61099 4.13525C6.17753 4.13525 4.20312 6.00562 4.20312 8.31113C4.20312 10.6166 6.17753 12.487 8.61099 12.487C11.0446 12.487 13.0189 10.6166 13.0189 8.31113C13.0189 6.00562 11.0446 4.13525 8.61099 4.13525ZM8.61099 11.0199C7.03228 11.0199 5.75172 9.80687 5.75172 8.31113C5.75172 6.81539 7.03228 5.60234 8.61099 5.60234C10.1898 5.60234 11.4703 6.81539 11.4703 8.31113C11.4703 9.80687 10.1898 11.0199 8.61099 11.0199Z" fill="#000927"/>
<path id="Vector_3" d="M14.2232 3.96999C14.2232 4.50835 13.7625 4.94487 13.1941 4.94487C12.6258 4.94487 12.165 4.50835 12.165 3.96999C12.165 3.43151 12.6258 2.99512 13.1941 2.99512C13.7625 2.99512 14.2232 3.43151 14.2232 3.96999Z" fill="#000927"/>
</g>
<defs>
<clipPath id="clip0_1_1718">
<rect width="17.1588" height="16.2557" fill="white" transform="translate(0 0.181641)"/>
</clipPath>
</defs>
</svg>
