<svg width="22" height="17" viewBox="0 0 22 17" fill="none" xmlns="http://www.w3.org/2000/svg">
<path id="Vector" d="M21.446 2.22546C20.7042 2.53807 19.8564 2.74649 19.0086 2.85069C19.8564 2.32967 20.5982 1.49605 20.9162 0.558219C20.0683 1.07924 19.2206 1.39185 18.1608 1.60025C17.419 0.766626 16.2532 0.245605 15.0875 0.245605C12.756 0.245605 10.8485 2.12127 10.8485 4.41374C10.8485 4.72635 10.8485 5.03896 10.9544 5.35157C7.45725 5.14316 4.27797 3.47591 2.15846 0.975026C1.84053 1.60025 1.62858 2.32967 1.62858 3.0591C1.62858 4.51794 2.37041 5.76839 3.53615 6.49781C2.79432 6.49781 2.15846 6.28941 1.62858 5.9768C1.62858 7.95666 3.11224 9.72811 5.0198 10.0407C4.70187 10.1449 4.27798 10.1449 3.85408 10.1449C3.53615 10.1449 3.32419 10.1449 3.00627 10.0407C3.53615 11.708 5.12578 12.9584 7.03335 12.9584C5.54969 14.1047 3.7481 14.7299 1.73456 14.7299C1.41663 14.7299 1.09871 14.7299 0.674805 14.6257C2.58237 15.7719 4.80785 16.5014 7.2453 16.5014C15.0875 16.5014 19.3265 10.1449 19.3265 4.62215V4.10113C20.1743 3.78852 20.9162 3.05909 21.446 2.22546Z" fill="#E9EDFA"/>
</svg>
