<svg width="25" height="17" viewBox="0 0 25 17" fill="none" xmlns="http://www.w3.org/2000/svg">
<g id="Group 4">
<path id="Vector" d="M23.6632 2.65367C23.5244 2.14075 23.2536 1.67313 22.8779 1.29739C22.5022 0.921656 22.0345 0.650908 21.5216 0.512112C19.6439 0 12.0863 0 12.0863 0C12.0863 0 4.52882 0.0155185 2.65107 0.52763C2.13815 0.666426 1.67053 0.937174 1.29479 1.31291C0.919057 1.68865 0.64831 2.15626 0.509514 2.66919C-0.0584649 6.00568 -0.278828 11.0896 0.525032 14.2926C0.663828 14.8055 0.934576 15.2731 1.31031 15.6489C1.68605 16.0246 2.15367 16.2953 2.66659 16.4341C4.54433 16.9462 12.1019 16.9462 12.1019 16.9462C12.1019 16.9462 19.6594 16.9462 21.5371 16.4341C22.0501 16.2953 22.5177 16.0246 22.8934 15.6489C23.2692 15.2731 23.5399 14.8055 23.6787 14.2926C24.2777 10.9514 24.4624 5.87066 23.6632 2.65367Z" fill="#E9EDFA"/>
<path id="Vector_2" d="M9.68066 12.1045L15.9502 8.47314L9.68066 4.8418V12.1045Z" fill="#000927"/>
</g>
</svg>
