<svg width="118" height="60" viewBox="0 0 118 60" fill="none" xmlns="http://www.w3.org/2000/svg">
<g id="Group 373">
<path id="Vector" fill-rule="evenodd" clip-rule="evenodd" d="M0 29.9534C0 13.4104 26.323 0 59.0004 0C91.677 0 118 13.4104 118 29.9534C118 46.4964 91.677 59.9076 59.0004 59.9076C26.323 59.9076 0 46.4964 0 29.9534Z" fill="white"/>
<path id="Vector_2" fill-rule="evenodd" clip-rule="evenodd" d="M112.3 29.9533C112.3 19.3588 92.3862 5.69952 59.0005 5.69952C25.6147 5.69952 5.70123 19.3588 5.70123 29.9533C5.70123 40.5477 25.6147 54.207 59.0005 54.207C92.3862 54.207 112.3 40.5477 112.3 29.9533ZM112.808 29.9533C112.808 41.0743 92.331 54.7152 59.0005 54.7152C25.6699 54.7152 5.19238 41.0743 5.19238 29.9533C5.19238 18.8323 25.6699 5.19141 59.0005 5.19141C92.3317 5.19141 112.808 18.8323 112.808 29.9533ZM2.54874 31.3141C2.36764 31.3117 2.18884 31.2732 2.02283 31.2008C1.85682 31.1283 1.70693 31.0235 1.58195 30.8924C1.45697 30.7613 1.35942 30.6066 1.29501 30.4374C1.2306 30.2681 1.20063 30.0876 1.20686 29.9066C1.21308 29.7256 1.25538 29.5477 1.33126 29.3832C1.40715 29.2188 1.5151 29.0711 1.64879 28.9489C1.78247 28.8267 1.93921 28.7325 2.1098 28.6716C2.2804 28.6108 2.46142 28.5846 2.64226 28.5946C2.99768 28.6144 3.33122 28.7725 3.57138 29.0353C3.81154 29.298 3.93918 29.6444 3.92695 30.0002C3.91472 30.3559 3.76358 30.6927 3.50594 30.9384C3.2483 31.184 2.90467 31.3189 2.54874 31.3141ZM2.94344 26.8221C2.77069 26.7668 2.61074 26.6774 2.47297 26.5594C2.3352 26.4414 2.2224 26.297 2.14117 26.1348C2.05994 25.9726 2.01193 25.7958 1.99995 25.6148C1.98798 25.4338 2.01227 25.2522 2.07142 25.0807C2.13056 24.9092 2.22336 24.7512 2.34438 24.6161C2.46539 24.4809 2.61218 24.3713 2.77613 24.2937C2.94008 24.216 3.11789 24.1719 3.29912 24.1639C3.48036 24.1558 3.66136 24.1841 3.83153 24.247C4.1656 24.3704 4.43804 24.6198 4.59049 24.9417C4.74295 25.2635 4.76331 25.6323 4.64719 25.969C4.53108 26.3057 4.28773 26.5835 3.96928 26.743C3.65083 26.9025 3.28259 26.9309 2.94344 26.8221ZM4.68574 22.6615C4.53516 22.5608 4.4062 22.4309 4.30643 22.2797C4.20665 22.1284 4.13808 21.9588 4.10472 21.7807C4.07135 21.6026 4.07387 21.4196 4.11213 21.2425C4.15039 21.0654 4.22362 20.8977 4.32752 20.7492C4.43142 20.6008 4.5639 20.4746 4.71721 20.378C4.87052 20.2814 5.04156 20.2164 5.22032 20.1867C5.39908 20.1571 5.58196 20.1634 5.75824 20.2054C5.93451 20.2473 6.10064 20.324 6.24689 20.431C6.53438 20.6413 6.72801 20.9559 6.78627 21.3073C6.84453 21.6587 6.76277 22.0189 6.55853 22.3107C6.35429 22.6025 6.04383 22.8027 5.69372 22.8683C5.34362 22.9339 4.98176 22.8596 4.68574 22.6615ZM7.41333 19.0709C7.15807 18.8157 7.01463 18.4696 7.01456 18.1087C7.01453 17.93 7.04969 17.753 7.11805 17.5879C7.18641 17.4228 7.28662 17.2727 7.41297 17.1463C7.53931 17.02 7.68931 16.9197 7.85441 16.8513C8.0195 16.7828 8.19646 16.7476 8.37517 16.7476C8.73609 16.7475 9.08226 16.8908 9.33752 17.146C9.59278 17.4011 9.73623 17.7473 9.7363 18.1082C9.73636 18.4691 9.59305 18.8153 9.33789 19.0705C9.08273 19.3258 8.73661 19.4692 8.37569 19.4693C8.01476 19.4694 7.66859 19.3261 7.41333 19.0709Z" fill="#02183C"/>
<path id="Vector_3" fill-rule="evenodd" clip-rule="evenodd" d="M10.6971 15.9758C10.592 15.831 10.5164 15.667 10.4747 15.493C10.433 15.319 10.426 15.1386 10.454 14.9619C10.482 14.7852 10.5446 14.6157 10.6381 14.4632C10.7316 14.3107 10.8543 14.1781 10.999 14.073C11.1438 13.9679 11.3079 13.8923 11.4818 13.8506C11.6558 13.8088 11.8363 13.8018 12.013 13.8298C12.1897 13.8579 12.3591 13.9204 12.5116 14.014C12.6642 14.1075 12.7968 14.2301 12.9019 14.3749C13.1142 14.6673 13.2016 15.032 13.145 15.3888C13.0884 15.7457 12.8923 16.0654 12.6 16.2777C12.3076 16.49 11.9429 16.5775 11.586 16.5209C11.2292 16.4642 10.9094 16.2682 10.6971 15.9758ZM14.3835 13.3763C14.2914 13.2232 14.2304 13.0534 14.204 12.8766C14.1776 12.6999 14.1862 12.5196 14.2294 12.3462C14.2726 12.1728 14.3496 12.0096 14.4559 11.8659C14.5622 11.7223 14.6957 11.6009 14.8489 11.5089C15.0021 11.4168 15.1719 11.3558 15.3486 11.3294C15.5254 11.3029 15.7056 11.3116 15.879 11.3548C16.0524 11.398 16.2156 11.475 16.3593 11.5812C16.503 11.6875 16.6243 11.8211 16.7164 11.9743C16.9023 12.2836 16.9577 12.6542 16.8705 13.0044C16.7832 13.3546 16.5603 13.6558 16.251 13.8417C15.9416 14.0277 15.5711 14.0831 15.2209 13.9958C14.8706 13.9085 14.5694 13.6857 14.3835 13.3763ZM18.2982 11.137C18.2145 10.9757 18.164 10.7994 18.1495 10.6183C18.1351 10.4372 18.157 10.255 18.2141 10.0826C18.2711 9.9101 18.3621 9.75078 18.4816 9.614C18.6012 9.47722 18.7469 9.36575 18.9101 9.28614C19.0734 9.20654 19.251 9.16041 19.4324 9.15049C19.6138 9.14056 19.7953 9.16702 19.9663 9.22833C20.1373 9.28964 20.2943 9.38454 20.4281 9.50745C20.5618 9.63037 20.6697 9.77881 20.7452 9.94403C20.8929 10.2671 20.9084 10.6351 20.7885 10.9695C20.6686 11.3039 20.4228 11.5783 20.1035 11.7339C19.7842 11.8896 19.4166 11.9143 19.0794 11.8028C18.7421 11.6913 18.4617 11.4523 18.2982 11.137ZM22.3792 9.21132C22.3115 9.04357 22.2778 8.864 22.2802 8.68309C22.2825 8.50218 22.3209 8.32355 22.3931 8.15765C22.4653 7.99174 22.5698 7.84186 22.7005 7.71677C22.8312 7.59168 22.9855 7.49388 23.1544 7.42908C23.3234 7.36428 23.5035 7.33378 23.6843 7.33935C23.8652 7.34493 24.0431 7.38646 24.2077 7.46154C24.3723 7.53662 24.5203 7.64374 24.6431 7.77664C24.7659 7.90954 24.8609 8.06556 24.9227 8.2356C25.0447 8.57126 25.0301 8.94141 24.8819 9.26636C24.7336 9.59131 24.4638 9.84505 24.1303 9.97297C23.7968 10.1009 23.4265 10.0927 23.099 9.95029C22.7715 9.80783 22.513 9.54247 22.3792 9.21132ZM26.5958 7.60746C26.5338 7.43571 26.5069 7.25324 26.5168 7.07091C26.5267 6.88857 26.5732 6.71009 26.6535 6.54607C26.7337 6.38204 26.8461 6.23583 26.984 6.11611C27.1219 5.99639 27.2824 5.90562 27.4561 5.84918C27.6298 5.79274 27.813 5.77179 27.9949 5.78757C28.1768 5.80335 28.3537 5.85555 28.5151 5.94105C28.6764 6.02656 28.8189 6.14363 28.9341 6.28531C29.0493 6.42698 29.1349 6.59037 29.1857 6.76577C29.2841 7.1055 29.2465 7.47018 29.0809 7.78271C28.9153 8.09523 28.6346 8.33109 28.2982 8.44042C27.9618 8.54974 27.5961 8.52394 27.2784 8.3685C26.9607 8.21305 26.7159 7.94013 26.5958 7.60746ZM30.8993 6.25692C30.8529 6.0843 30.8411 5.90425 30.8643 5.72705C30.8876 5.54985 30.9455 5.37896 31.0348 5.22415C31.1242 5.06933 31.2431 4.93363 31.3848 4.82477C31.5266 4.71592 31.6884 4.63605 31.861 4.58973C32.0336 4.54341 32.2137 4.53154 32.3909 4.5548C32.5681 4.57807 32.739 4.636 32.8938 4.72531C33.0486 4.81461 33.1843 4.93354 33.2931 5.07529C33.402 5.21704 33.4819 5.37884 33.5282 5.55146C33.6217 5.90007 33.573 6.27157 33.3926 6.58423C33.2122 6.89689 32.9151 7.12509 32.5665 7.21864C32.2178 7.31219 31.8463 7.26343 31.5337 7.08307C31.221 6.90271 30.9928 6.60553 30.8993 6.25692ZM35.269 5.13761C35.2318 4.96272 35.2294 4.78221 35.2619 4.60638C35.2944 4.43056 35.3613 4.26286 35.4586 4.11287C35.5559 3.96288 35.6819 3.83353 35.8292 3.7322C35.9765 3.63088 36.1424 3.55957 36.3173 3.52233C36.4922 3.4851 36.6727 3.48268 36.8485 3.51521C37.0243 3.54774 37.192 3.61459 37.342 3.71193C37.492 3.80927 37.6213 3.93519 37.7227 4.08252C37.824 4.22985 37.8953 4.3957 37.9325 4.57059C38.0077 4.92379 37.9395 5.2924 37.7429 5.59532C37.5464 5.89825 37.2375 6.11067 36.8843 6.18586C36.5311 6.26105 36.1625 6.19285 35.8595 5.99627C35.5566 5.79968 35.3442 5.49081 35.269 5.13761ZM39.6881 4.23185C39.6574 4.05417 39.6622 3.87216 39.7024 3.69639C39.7426 3.52062 39.8174 3.35459 39.9223 3.20795C40.0272 3.06131 40.1603 2.93699 40.3136 2.8422C40.467 2.74742 40.6377 2.68406 40.8158 2.65581C40.9939 2.62756 41.1758 2.63498 41.351 2.67765C41.5262 2.72031 41.6912 2.79736 41.8363 2.90433C41.9815 3.0113 42.1039 3.14605 42.1966 3.30075C42.2892 3.45545 42.3502 3.62701 42.3759 3.80547C42.427 4.15943 42.3367 4.51927 42.1245 4.80716C41.9124 5.09506 41.5954 5.28787 41.2422 5.3439C40.889 5.39993 40.528 5.31467 40.2371 5.10656C39.9463 4.89846 39.7491 4.58423 39.6881 4.23185ZM44.1469 3.54995C44.1227 3.37139 44.1342 3.1898 44.1808 3.01572C44.2273 2.84163 44.3079 2.67851 44.4179 2.53581C44.5279 2.39311 44.6652 2.27366 44.8217 2.1844C44.9782 2.09514 45.1509 2.03783 45.3298 2.01581C45.5086 1.99378 45.69 2.00747 45.8635 2.05608C46.0371 2.1047 46.1992 2.18727 46.3406 2.29901C46.4819 2.41075 46.5997 2.54944 46.6871 2.70704C46.7744 2.86463 46.8296 3.03801 46.8495 3.2171C46.889 3.57318 46.7865 3.93048 46.5644 4.21153C46.3422 4.49259 46.0182 4.67476 45.6626 4.71856C45.3071 4.76235 44.9486 4.66423 44.6648 4.44548C44.3811 4.22673 44.195 3.90497 44.1469 3.54995ZM48.6286 3.03521C48.6116 2.85428 48.6309 2.67176 48.6854 2.4984C48.74 2.32505 48.8287 2.16436 48.9463 2.0258C49.0639 1.88725 49.208 1.77362 49.3702 1.69161C49.5324 1.60961 49.7093 1.56088 49.8906 1.5483C50.0719 1.53573 50.2539 1.55955 50.4259 1.61837C50.5978 1.6772 50.7563 1.76983 50.8919 1.89082C51.0275 2.01181 51.1375 2.15872 51.2155 2.32288C51.2935 2.48704 51.3378 2.66514 51.3459 2.8467C51.3617 3.20182 51.2381 3.54907 51.0015 3.81432C50.7648 4.07957 50.4338 4.24181 50.0792 4.26642C49.7246 4.29102 49.3744 4.17603 49.1034 3.946C48.8323 3.71597 48.662 3.38912 48.6286 3.03521ZM53.1294 2.72887C53.1278 2.37475 53.2641 2.03389 53.5094 1.77854C53.7548 1.52319 54.0899 1.37342 54.4439 1.36097C54.7978 1.34852 55.1426 1.47437 55.4053 1.71185C55.668 1.94933 55.8279 2.27977 55.8511 2.63314C55.8528 2.98727 55.7165 3.32813 55.4711 3.58348C55.2258 3.83883 54.8906 3.9886 54.5367 4.00104C54.1828 4.01349 53.838 3.88764 53.5753 3.65016C53.3126 3.41268 53.1526 3.08224 53.1294 2.72887ZM57.6384 2.59559C57.6323 2.41301 57.6631 2.23109 57.7288 2.06065C57.7946 1.89021 57.8939 1.73473 58.0209 1.60346C58.148 1.47218 58.3001 1.36779 58.4683 1.2965C58.6365 1.22521 58.8173 1.18848 58.9999 1.18848C59.1826 1.18848 59.3634 1.22521 59.5316 1.2965C59.6998 1.36779 59.8519 1.47218 59.979 1.60346C60.106 1.73473 60.2053 1.89021 60.271 2.06065C60.3368 2.23109 60.3675 2.41301 60.3615 2.59559C60.3499 2.94895 60.2014 3.28396 59.9473 3.52981C59.6932 3.77567 59.3535 3.91312 58.9999 3.91312C58.6464 3.91312 58.3067 3.77567 58.0526 3.52981C57.7985 3.28396 57.65 2.94895 57.6384 2.59559ZM115.356 28.5924C115.717 28.5798 116.068 28.711 116.332 28.9573C116.596 29.2035 116.751 29.5446 116.764 29.9054C116.777 30.2662 116.645 30.6172 116.399 30.8813C116.153 31.1453 115.812 31.3008 115.451 31.3133C115.272 31.3196 115.094 31.2906 114.927 31.228C114.759 31.1654 114.606 31.0704 114.475 30.9485C114.211 30.7022 114.056 30.3612 114.043 30.0004C114.03 29.6395 114.162 29.2885 114.408 29.0244C114.654 28.7604 114.995 28.605 115.356 28.5924ZM114.17 24.2469C114.509 24.1382 114.877 24.1666 115.195 24.3261C115.514 24.4856 115.757 24.7634 115.873 25.1001C115.989 25.4368 115.969 25.8056 115.817 26.1274C115.664 26.4493 115.392 26.6987 115.058 26.8221C114.719 26.9308 114.35 26.9024 114.032 26.7429C113.713 26.5835 113.47 26.3056 113.354 25.969C113.238 25.6323 113.258 25.2635 113.411 24.9416C113.563 24.6198 113.836 24.3704 114.17 24.2469ZM111.754 20.431C111.9 20.3284 112.065 20.2557 112.24 20.217C112.414 20.1783 112.595 20.1744 112.771 20.2054C112.947 20.2365 113.115 20.3019 113.266 20.3979C113.417 20.494 113.547 20.6188 113.65 20.7653C113.752 20.9117 113.825 21.077 113.864 21.2515C113.902 21.4261 113.906 21.6066 113.875 21.7826C113.844 21.9587 113.779 22.127 113.683 22.2777C113.587 22.4285 113.462 22.5589 113.315 22.6615C113.169 22.7715 113.003 22.851 112.825 22.8953C112.648 22.9395 112.463 22.9475 112.282 22.9189C112.102 22.8903 111.929 22.8256 111.774 22.7287C111.619 22.6318 111.485 22.5046 111.38 22.3548C111.275 22.205 111.201 22.0356 111.163 21.8567C111.125 21.6778 111.123 21.4931 111.158 21.3136C111.193 21.134 111.264 20.9634 111.366 20.8117C111.468 20.6601 111.6 20.5306 111.754 20.431ZM108.661 17.1452C108.786 17.0136 108.936 16.9084 109.103 16.8358C109.27 16.7632 109.449 16.7246 109.631 16.7224C109.812 16.7202 109.993 16.7544 110.161 16.8229C110.329 16.8915 110.482 16.993 110.611 17.1215C110.739 17.2501 110.841 17.403 110.909 17.5713C110.978 17.7397 111.012 17.92 111.009 18.1017C111.007 18.2834 110.969 18.4628 110.896 18.6294C110.823 18.796 110.718 18.9463 110.586 19.0716C110.329 19.3166 109.986 19.4513 109.63 19.4469C109.275 19.4424 108.935 19.2992 108.684 19.0478C108.432 18.7964 108.289 18.4567 108.285 18.1012C108.281 17.7457 108.416 17.4026 108.661 17.1452ZM105.099 14.3756C105.312 14.0836 105.631 13.8877 105.988 13.8313C106.344 13.7748 106.709 13.8622 107.001 14.0744C107.293 14.2866 107.489 14.6062 107.545 14.9627C107.602 15.3193 107.514 15.6837 107.302 15.9758C107.197 16.1204 107.064 16.2429 106.912 16.3363C106.76 16.4297 106.59 16.4922 106.414 16.5202C106.237 16.5482 106.057 16.5411 105.883 16.4993C105.709 16.4576 105.545 16.3821 105.401 16.277C105.256 16.1719 105.134 16.0394 105.04 15.887C104.947 15.7346 104.884 15.5652 104.856 15.3887C104.828 15.2121 104.835 15.0318 104.877 14.858C104.919 14.6841 104.994 14.5202 105.099 14.3756ZM101.283 11.9735C101.373 11.8172 101.494 11.6804 101.638 11.5712C101.782 11.462 101.946 11.3826 102.121 11.3375C102.296 11.2924 102.478 11.2825 102.657 11.3086C102.836 11.3346 103.008 11.3959 103.162 11.489C103.317 11.5821 103.452 11.705 103.559 11.8507C103.666 11.9964 103.743 12.1619 103.785 12.3376C103.827 12.5132 103.834 12.6956 103.805 12.8739C103.776 13.0522 103.712 13.223 103.616 13.3763C103.427 13.6795 103.127 13.8963 102.779 13.9798C102.432 14.0633 102.066 14.007 101.759 13.8229C101.453 13.6388 101.232 13.3418 101.142 12.9958C101.053 12.6498 101.104 12.2827 101.283 11.9735ZM97.2437 9.96465C97.3182 9.80077 97.4244 9.65329 97.5563 9.53072C97.6881 9.40815 97.8429 9.31293 98.0118 9.25056C98.1807 9.18818 98.3602 9.1599 98.5401 9.16734C98.72 9.17478 98.8966 9.21778 99.0597 9.29388C99.2228 9.36998 99.3693 9.47765 99.4906 9.61068C99.6118 9.74372 99.7056 9.89947 99.7663 10.0689C99.827 10.2384 99.8536 10.4182 99.8444 10.598C99.8352 10.7778 99.7905 10.954 99.7128 11.1164C99.5578 11.4402 99.2814 11.6899 98.9434 11.811C98.6054 11.9321 98.2333 11.9149 97.9079 11.7631C97.5826 11.6113 97.3303 11.3373 97.2059 11.0005C97.0815 10.6637 97.0951 10.2915 97.2437 9.96465ZM93.0786 8.2356C93.1419 8.06753 93.2378 7.91364 93.3608 7.78278C93.4837 7.65192 93.6314 7.54668 93.7952 7.47312C93.959 7.39956 94.1358 7.35914 94.3153 7.35418C94.4948 7.34922 94.6735 7.37981 94.8412 7.4442C95.0088 7.5086 95.1621 7.60552 95.2921 7.72938C95.4221 7.85324 95.5263 8.00161 95.5988 8.16593C95.6712 8.33024 95.7105 8.50727 95.7142 8.68681C95.718 8.86635 95.6862 9.04486 95.6207 9.21206C95.4895 9.54679 95.2312 9.81606 94.9023 9.9611C94.5733 10.1061 94.2003 10.1152 93.8647 9.98628C93.5291 9.85737 93.2581 9.60094 93.1108 9.27297C92.9636 8.94499 92.952 8.57208 93.0786 8.2356ZM88.8142 6.7665C88.8663 6.59261 88.9526 6.43088 89.0681 6.29082C89.1836 6.15077 89.326 6.03521 89.4868 5.95094C89.6476 5.86667 89.8236 5.81538 90.0045 5.8001C90.1853 5.78481 90.3675 5.80583 90.5401 5.86193C90.7128 5.91802 90.8725 6.00806 91.0098 6.12674C91.1472 6.24543 91.2595 6.39038 91.34 6.55307C91.4206 6.71575 91.4678 6.8929 91.4789 7.07409C91.4901 7.25529 91.4649 7.43688 91.4048 7.60819C91.2871 7.94405 91.0426 8.22051 90.7237 8.37844C90.4048 8.53636 90.0367 8.56321 89.6982 8.45324C89.3597 8.34327 89.0777 8.10521 88.9125 7.78999C88.7473 7.47477 88.712 7.10741 88.8142 6.7665ZM84.471 5.5522C84.5156 5.37789 84.5944 5.21417 84.7028 5.07052C84.8112 4.92687 84.9469 4.80613 85.1023 4.7153C85.2576 4.62447 85.4294 4.56535 85.6077 4.54135C85.7861 4.51736 85.9674 4.52897 86.1412 4.57552C86.315 4.62206 86.4779 4.70262 86.6204 4.81252C86.7628 4.92243 86.8821 5.05949 86.9713 5.2158C87.0604 5.3721 87.1177 5.54453 87.1398 5.72311C87.1618 5.90169 87.1483 6.08288 87.0999 6.25618C87.0035 6.60135 86.7748 6.89455 86.4635 7.07212C86.1522 7.24969 85.7834 7.29729 85.4372 7.20459C85.091 7.11188 84.7954 6.88636 84.6145 6.57698C84.4335 6.26761 84.382 5.89936 84.471 5.5522ZM80.0666 4.57059C80.1008 4.39261 80.1701 4.22324 80.2706 4.07239C80.371 3.92154 80.5005 3.79225 80.6516 3.69209C80.8026 3.59192 80.9721 3.5229 81.1501 3.48907C81.3282 3.45523 81.5112 3.45725 81.6884 3.49503C81.8657 3.5328 82.0336 3.60556 82.1824 3.70904C82.3312 3.81252 82.4578 3.94465 82.5549 4.09769C82.652 4.25072 82.7175 4.42159 82.7477 4.60028C82.778 4.77897 82.7722 4.9619 82.7309 5.13834C82.6495 5.48546 82.4353 5.78684 82.1342 5.97782C81.8332 6.1688 81.4693 6.23414 81.1206 6.15984C80.7719 6.08553 80.4662 5.87749 80.2691 5.58037C80.0721 5.28324 79.9994 4.92072 80.0666 4.57059ZM75.6225 3.80621C75.6427 3.62295 75.6999 3.44571 75.7907 3.28521C75.8814 3.12471 76.0037 2.9843 76.1503 2.87248C76.2969 2.76066 76.4647 2.67976 76.6435 2.63467C76.8222 2.58959 77.0083 2.58126 77.1904 2.6102C77.3725 2.63913 77.5468 2.70472 77.7028 2.803C77.8588 2.90128 77.9932 3.0302 78.0979 3.18195C78.2026 3.33371 78.2754 3.50513 78.3119 3.68585C78.3484 3.86657 78.3479 4.05282 78.3103 4.23332C78.239 4.57604 78.0384 4.87814 77.7503 5.07695C77.4621 5.27576 77.1085 5.35602 76.7628 5.30108C76.4171 5.24614 76.1057 5.06022 75.8934 4.78189C75.6811 4.50355 75.5841 4.15417 75.6225 3.80621ZM71.1497 3.21857C71.1671 3.0375 71.2207 2.86176 71.3072 2.70172C71.3937 2.54168 71.5114 2.40059 71.6533 2.28676C71.7952 2.17294 71.9584 2.08869 72.1334 2.03898C72.3084 1.98927 72.4916 1.97512 72.6721 1.99735C72.8527 2.01958 73.027 2.07775 73.1847 2.16842C73.3424 2.25909 73.4803 2.38043 73.5904 2.52528C73.7005 2.67013 73.7804 2.83555 73.8255 3.01179C73.8706 3.18803 73.8799 3.37152 73.8529 3.55142C73.8003 3.90261 73.6126 4.21936 73.3298 4.4342C73.0471 4.64903 72.6916 4.74497 72.3392 4.70157C71.9867 4.65818 71.6652 4.47888 71.443 4.20187C71.2208 3.92486 71.1155 3.57204 71.1497 3.21857ZM66.6547 2.84522C66.6671 2.66685 66.7144 2.49266 66.7942 2.33261C66.8739 2.17257 66.9844 2.02981 67.1193 1.91252C67.2543 1.79522 67.411 1.70568 67.5806 1.64902C67.7502 1.59236 67.9293 1.56969 68.1076 1.58231C68.286 1.59465 68.4602 1.64202 68.6202 1.72174C68.7803 1.80146 68.923 1.91196 69.0403 2.0469C69.1576 2.18185 69.2472 2.3386 69.3038 2.50818C69.3605 2.67777 69.3832 2.85686 69.3705 3.03521C69.3581 3.21353 69.3106 3.38765 69.2308 3.54763C69.151 3.7076 69.0406 3.8503 68.9056 3.96757C68.7707 4.08484 68.614 4.1744 68.4445 4.23111C68.275 4.28783 68.0959 4.3106 67.9176 4.29812C67.7393 4.28565 67.5652 4.23817 67.4052 4.1584C67.2452 4.07864 67.1025 3.96814 66.9853 3.83323C66.868 3.69831 66.7785 3.54162 66.7217 3.3721C66.665 3.20258 66.6423 3.02355 66.6547 2.84522ZM62.1487 2.63314C62.1613 2.27232 62.3168 1.93128 62.5808 1.68505C62.7115 1.56313 62.865 1.46815 63.0325 1.40554C63.1999 1.34293 63.3781 1.31392 63.5567 1.32016C63.7354 1.32639 63.9111 1.36776 64.0737 1.44189C64.2364 1.51603 64.3829 1.62148 64.5048 1.75222C64.6267 1.88296 64.7217 2.03644 64.7843 2.20389C64.8469 2.37134 64.8759 2.54948 64.8697 2.72814C64.8571 3.08896 64.7017 3.43 64.4376 3.67623C64.1736 3.92246 63.8225 4.05372 63.4617 4.04112C63.1009 4.02852 62.7599 3.87311 62.5136 3.60906C62.2674 3.34501 62.1362 2.99396 62.1487 2.63314ZM115.057 33.0844C115.228 33.1414 115.385 33.2317 115.521 33.35C115.656 33.4683 115.767 33.6122 115.846 33.7735C115.926 33.9349 115.973 34.1103 115.984 34.2898C115.995 34.4693 115.971 34.6493 115.912 34.8194C115.854 34.9894 115.762 35.1462 115.643 35.2806C115.523 35.415 115.378 35.5243 115.216 35.6024C115.054 35.6804 114.878 35.7256 114.698 35.7353C114.519 35.745 114.339 35.719 114.17 35.6588C113.831 35.5387 113.554 35.2899 113.398 34.9665C113.243 34.6431 113.221 34.2713 113.338 33.932C113.455 33.5926 113.701 33.3132 114.023 33.1545C114.345 32.9957 114.717 32.9705 115.057 33.0844ZM113.315 37.2442C113.465 37.3455 113.593 37.4756 113.692 37.6268C113.791 37.778 113.858 37.9474 113.891 38.125C113.924 38.3027 113.921 38.4851 113.882 38.6616C113.844 38.8381 113.771 39.0052 113.667 39.1531C113.563 39.3011 113.431 39.4269 113.279 39.5233C113.126 39.6197 112.955 39.6847 112.777 39.7145C112.599 39.7444 112.417 39.7385 112.241 39.6972C112.065 39.6559 111.899 39.5801 111.753 39.474C111.463 39.2643 111.268 38.9492 111.209 38.5968C111.15 38.2444 111.232 37.8829 111.437 37.5903C111.642 37.2977 111.954 37.0974 112.305 37.0326C112.657 36.9679 113.02 37.0439 113.315 37.2442ZM110.587 40.8356C110.714 40.9619 110.814 41.1119 110.883 41.2771C110.951 41.4422 110.986 41.6193 110.986 41.7981C110.986 41.9769 110.951 42.1539 110.883 42.3191C110.814 42.4843 110.714 42.6343 110.587 42.7605C110.397 42.9513 110.154 43.0813 109.89 43.1341C109.625 43.1868 109.351 43.16 109.102 43.0569C108.853 42.9539 108.64 42.7793 108.49 42.5552C108.341 42.3311 108.261 42.0676 108.261 41.7981C108.261 41.5285 108.341 41.2651 108.49 41.041C108.64 40.8169 108.853 40.6423 109.102 40.5392C109.351 40.4362 109.625 40.4094 109.89 40.4621C110.154 40.5149 110.397 40.6449 110.587 40.8356ZM107.303 43.9299C107.409 44.0747 107.484 44.2388 107.526 44.4128C107.567 44.5868 107.574 44.7673 107.546 44.944C107.518 45.1207 107.456 45.2902 107.362 45.4426C107.268 45.5951 107.146 45.7277 107.001 45.8328C106.856 45.9378 106.692 46.0134 106.518 46.055C106.344 46.0967 106.163 46.1036 105.987 46.0755C105.81 46.0474 105.641 45.9848 105.488 45.8912C105.336 45.7976 105.203 45.6749 105.098 45.5301C104.886 45.2376 104.798 44.8729 104.855 44.516C104.912 44.1592 105.108 43.8395 105.401 43.6273C105.693 43.4151 106.058 43.3278 106.415 43.3845C106.772 43.4413 107.091 43.6375 107.303 43.9299ZM103.617 46.5301C103.717 46.6836 103.786 46.8556 103.818 47.036C103.85 47.2164 103.845 47.4015 103.804 47.5801C103.763 47.7587 103.687 47.9272 103.579 48.0755C103.471 48.2238 103.335 48.3488 103.178 48.4431C103.021 48.5374 102.846 48.5991 102.665 48.6244C102.483 48.6497 102.298 48.6381 102.121 48.5903C101.945 48.5426 101.779 48.4596 101.635 48.3464C101.491 48.2332 101.371 48.0921 101.283 47.9315C101.113 47.6227 101.069 47.2602 101.161 46.92C101.253 46.5798 101.473 46.2884 101.775 46.1071C102.077 45.9257 102.438 45.8685 102.782 45.9474C103.125 46.0262 103.424 46.2351 103.617 46.5301ZM95.6199 50.6952C95.6841 50.862 95.7147 51.0398 95.7102 51.2185C95.7056 51.3971 95.6659 51.5732 95.5933 51.7365C95.5208 51.8998 95.4167 52.0472 95.2872 52.1704C95.1576 52.2935 95.0051 52.3899 94.8382 52.454C94.6714 52.5182 94.4936 52.5489 94.3149 52.5443C94.1363 52.5397 93.9602 52.5 93.7969 52.4275C93.6336 52.3549 93.4862 52.2508 93.363 52.1213C93.2399 51.9917 93.1435 51.8392 93.0794 51.6723C92.9498 51.3354 92.9593 50.9609 93.1059 50.631C93.2525 50.3012 93.5241 50.0431 93.861 49.9135C94.1979 49.7839 94.5725 49.7934 94.9024 49.94C95.2322 50.0866 95.4903 50.3583 95.6199 50.6952ZM91.4048 52.299C91.507 52.6399 91.4717 53.0073 91.3065 53.3225C91.1413 53.6377 90.8593 53.8758 90.5208 53.9857C90.1823 54.0957 89.8142 54.0689 89.4953 53.9109C89.1764 53.753 88.9319 53.4766 88.8142 53.1407C88.712 52.7998 88.7473 52.4324 88.9125 52.1172C89.0777 51.802 89.3597 51.5639 89.6982 51.454C90.0367 51.344 90.4048 51.3709 90.7237 51.5288C91.0426 51.6867 91.2871 51.9632 91.4048 52.299ZM87.0999 53.6496C87.1933 53.9983 87.1444 54.3698 86.9639 54.6825C86.7834 54.9951 86.4861 55.2233 86.1374 55.3167C85.7887 55.4102 85.4171 55.3613 85.1045 55.1808C84.7918 55.0003 84.5637 54.703 84.4702 54.3543C84.424 54.1816 84.4121 54.0015 84.4355 53.8243C84.4588 53.6471 84.5168 53.4762 84.6062 53.3214C84.6955 53.1665 84.8145 53.0308 84.9563 52.922C85.0982 52.8132 85.26 52.7334 85.4327 52.6871C85.6053 52.6408 85.7854 52.629 85.9627 52.6523C86.1399 52.6757 86.3108 52.7337 86.4656 52.823C86.6204 52.9124 86.7561 53.0314 86.8649 53.1732C86.9738 53.315 87.0536 53.4769 87.0999 53.6496ZM82.7309 54.7689C82.7681 54.9438 82.7704 55.1243 82.7378 55.3001C82.7053 55.4759 82.6384 55.6435 82.541 55.7935C82.4436 55.9435 82.3177 56.0728 82.1703 56.174C82.023 56.2753 81.8571 56.3466 81.6822 56.3838C81.5074 56.421 81.3269 56.4233 81.151 56.3908C80.9752 56.3582 80.8076 56.2913 80.6576 56.1939C80.5077 56.0966 80.3783 55.9706 80.2771 55.8232C80.1758 55.6759 80.1045 55.51 80.0673 55.3351C79.9959 54.9834 80.0663 54.6176 80.2632 54.3175C80.46 54.0173 80.7674 53.8071 81.1185 53.7324C81.4697 53.6578 81.836 53.7248 82.138 53.9189C82.4399 54.113 82.653 54.4185 82.7309 54.7689ZM78.3125 55.6746C78.3447 55.8532 78.3408 56.0363 78.3012 56.2133C78.2617 56.3904 78.1871 56.5577 78.082 56.7056C77.9769 56.8534 77.8433 56.9787 77.689 57.0742C77.5348 57.1698 77.3631 57.2335 77.1839 57.2618C77.0047 57.29 76.8217 57.2822 76.6455 57.2387C76.4694 57.1953 76.3037 57.1171 76.1582 57.0088C76.0127 56.9005 75.8903 56.7642 75.7982 56.6079C75.7061 56.4516 75.6461 56.2786 75.6217 56.0988C75.574 55.7458 75.6663 55.3882 75.879 55.1025C76.0917 54.8168 76.4078 54.6258 76.7596 54.5703C77.1115 54.5149 77.471 54.5994 77.7613 54.8058C78.0515 55.0122 78.2494 55.3241 78.3125 55.6746ZM73.8522 56.3558C73.8741 56.5332 73.8609 56.7132 73.8132 56.8855C73.7655 57.0577 73.6844 57.219 73.5745 57.3599C73.4645 57.5008 73.3279 57.6187 73.1724 57.7068C73.0168 57.795 72.8455 57.8516 72.6681 57.8735C72.4907 57.8954 72.3107 57.8821 72.1384 57.8345C71.9661 57.7868 71.8049 57.7057 71.664 57.5958C71.5231 57.4858 71.4052 57.3492 71.317 57.1937C71.2289 57.0381 71.1723 56.8668 71.1504 56.6894C71.1061 56.3311 71.2061 55.9699 71.4281 55.6853C71.6502 55.4007 71.9762 55.2159 72.3345 55.1717C72.6928 55.1274 73.054 55.2273 73.3386 55.4494C73.6232 55.6715 73.808 55.9975 73.8522 56.3558ZM69.3705 56.8705C69.383 57.0489 69.3603 57.2279 69.3037 57.3974C69.247 57.567 69.1575 57.7237 69.0402 57.8586C68.923 57.9936 68.7803 58.1041 68.6204 58.1839C68.4604 58.2637 68.2863 58.3113 68.108 58.3238C67.9297 58.3363 67.7506 58.3136 67.5811 58.2569C67.4115 58.2003 67.2548 58.1107 67.1199 57.9935C66.9849 57.8763 66.8744 57.7336 66.7946 57.5736C66.7148 57.4137 66.6672 57.2396 66.6547 57.0613C66.6422 56.8829 66.6649 56.7039 66.7216 56.5343C66.7783 56.3648 66.8678 56.2081 66.985 56.0731C67.1022 55.9382 67.2449 55.8277 67.4049 55.7478C67.5648 55.668 67.7389 55.6205 67.9173 55.608C68.0956 55.5955 68.2746 55.6182 68.4442 55.6749C68.6137 55.7315 68.7704 55.821 68.9054 55.9383C69.0403 56.0555 69.1509 56.1982 69.2307 56.3581C69.3105 56.5181 69.358 56.6922 69.3705 56.8705ZM64.8704 57.1783C64.8767 57.357 64.8478 57.5352 64.7852 57.7026C64.7226 57.8701 64.6277 58.0236 64.5058 58.1544C64.3839 58.2851 64.2375 58.3906 64.0748 58.4648C63.9122 58.539 63.7365 58.5804 63.5578 58.5867C63.3792 58.593 63.201 58.564 63.0336 58.5014C62.8661 58.4389 62.7126 58.3439 62.5818 58.2221C62.451 58.1002 62.3455 57.9537 62.2714 57.7911C62.1972 57.6284 62.1558 57.4527 62.1495 57.2741C62.1368 56.9133 62.268 56.5622 62.5141 56.298C62.7603 56.0339 63.1013 55.8784 63.4621 55.8657C63.8229 55.853 64.174 55.9842 64.4381 56.2304C64.7022 56.4765 64.8577 56.8175 64.8704 57.1783ZM60.3615 57.3109C60.3675 57.4935 60.3368 57.6754 60.271 57.8458C60.2053 58.0163 60.106 58.1717 59.979 58.303C59.8519 58.4343 59.6998 58.5387 59.5316 58.61C59.3634 58.6813 59.1826 58.718 58.9999 58.718C58.8173 58.718 58.6365 58.6813 58.4683 58.61C58.3001 58.5387 58.148 58.4343 58.0209 58.303C57.8939 58.1717 57.7946 58.0163 57.7288 57.8458C57.6631 57.6754 57.6323 57.4935 57.6384 57.3109C57.65 56.9575 57.7985 56.6225 58.0526 56.3767C58.3067 56.1308 58.6464 55.9934 58.9999 55.9934C59.3535 55.9934 59.6932 56.1308 59.9473 56.3767C60.2014 56.6225 60.3499 56.9575 60.3615 57.3109ZM55.8511 57.2733C55.8503 57.4557 55.8128 57.6361 55.7409 57.8037C55.6691 57.9714 55.5643 58.1229 55.4327 58.2492C55.3012 58.3756 55.1457 58.4743 54.9753 58.5394C54.8049 58.6046 54.6232 58.6348 54.4409 58.6284C54.2587 58.622 54.0795 58.579 53.9142 58.5021C53.7488 58.4252 53.6005 58.3158 53.4782 58.1805C53.3559 58.0452 53.262 57.8867 53.2021 57.7144C53.1422 57.5422 53.1175 57.3596 53.1294 57.1776C53.1526 56.8242 53.3126 56.4938 53.5753 56.2563C53.838 56.0188 54.1828 55.893 54.5367 55.9054C54.8906 55.9179 55.2258 56.0677 55.4711 56.323C55.7165 56.5784 55.8528 56.9192 55.8511 57.2733ZM51.3452 57.0605C51.3363 57.2417 51.2914 57.4192 51.213 57.5828C51.1346 57.7463 51.0243 57.8926 50.8887 58.0129C50.753 58.1333 50.5947 58.2254 50.423 58.2838C50.2513 58.3421 50.0696 58.3656 49.8887 58.3529C49.7078 58.3401 49.5312 58.2914 49.3694 58.2095C49.2076 58.1277 49.0637 58.0143 48.9463 57.8761C48.8289 57.7379 48.7402 57.5776 48.6855 57.4047C48.6309 57.2318 48.6113 57.0497 48.6279 56.8691C48.6605 56.5143 48.8308 56.1865 49.1023 55.9558C49.3738 55.7251 49.7248 55.6099 50.0802 55.635C50.4356 55.66 50.767 55.8233 51.0035 56.0897C51.2399 56.3562 51.3626 56.7047 51.3452 57.0605ZM46.8495 56.6879C46.832 56.869 46.7784 57.0447 46.692 57.2048C46.6055 57.3648 46.4878 57.5059 46.3459 57.6197C46.204 57.7335 46.0407 57.8178 45.8657 57.8675C45.6907 57.9172 45.5075 57.9314 45.327 57.9091C45.1464 57.8869 44.9722 57.8287 44.8145 57.7381C44.6567 57.6474 44.5188 57.5261 44.4087 57.3812C44.2987 57.2364 44.2187 57.0709 44.1737 56.8947C44.1286 56.7184 44.1192 56.535 44.1462 56.3551C44.1988 56.0039 44.3865 55.6871 44.6693 55.4723C44.952 55.2574 45.3075 55.1615 45.66 55.2049C46.0124 55.2483 46.334 55.4276 46.5562 55.7046C46.7784 55.9816 46.8836 56.3344 46.8495 56.6879ZM42.3774 56.101C42.3493 56.2776 42.2868 56.447 42.1933 56.5995C42.0998 56.7519 41.9772 56.8845 41.8324 56.9895C41.6877 57.0946 41.5237 57.1701 41.3498 57.2118C41.1759 57.2535 40.9955 57.2605 40.8188 57.2325C40.6422 57.2044 40.4728 57.1419 40.3204 57.0484C40.1679 56.9549 40.0354 56.8322 39.9303 56.6875C39.8252 56.5428 39.7497 56.3788 39.708 56.2049C39.6663 56.031 39.6593 55.8505 39.6874 55.6739C39.744 55.3172 39.94 54.9976 40.2323 54.7854C40.5246 54.5732 40.8892 54.4858 41.2459 54.5424C41.6026 54.5991 41.9223 54.7951 42.1344 55.0874C42.3466 55.3797 42.434 55.7443 42.3774 56.101ZM37.9325 55.3359C37.8573 55.6891 37.6449 55.998 37.342 56.1946C37.0391 56.3911 36.6705 56.4593 36.3173 56.3841C35.9641 56.3089 35.6552 56.0965 35.4586 55.7936C35.262 55.4907 35.1938 55.1221 35.269 54.7689C35.3062 54.594 35.3776 54.4281 35.4789 54.2808C35.5802 54.1335 35.7096 54.0076 35.8595 53.9102C36.0095 53.8129 36.1772 53.746 36.3531 53.7135C36.5289 53.681 36.7094 53.6834 36.8843 53.7206C37.0592 53.7579 37.225 53.8292 37.3723 53.9305C37.5197 54.0318 37.6456 54.1612 37.7429 54.3111C37.8403 54.4611 37.9071 54.6288 37.9397 54.8047C37.9722 54.9805 37.9698 55.161 37.9325 55.3359ZM29.185 53.1407C29.1341 53.3161 29.0486 53.4795 28.9334 53.6212C28.8182 53.7628 28.6757 53.8799 28.5143 53.9654C28.353 54.0509 28.1761 54.1031 27.9942 54.1189C27.8123 54.1347 27.629 54.1137 27.4553 54.0573C27.2817 54.0009 27.1211 53.9101 26.9833 53.7904C26.8454 53.6707 26.733 53.5244 26.6527 53.3604C26.5725 53.1964 26.526 53.0179 26.5161 52.8356C26.5062 52.6532 26.5331 52.4708 26.5951 52.299C26.7152 51.9663 26.96 51.6934 27.2777 51.538C27.5954 51.3825 27.9611 51.3567 28.2975 51.4661C28.6339 51.5754 28.9145 51.8112 29.0802 52.1238C29.2458 52.4363 29.2834 52.801 29.185 53.1407ZM24.9212 51.6709C24.7919 52.0079 24.5339 52.2797 24.2041 52.4265C23.8743 52.5733 23.4997 52.583 23.1628 52.4537C22.8258 52.3243 22.554 52.0663 22.4072 51.7365C22.2604 51.4067 22.2506 51.0322 22.38 50.6952C22.444 50.5283 22.5403 50.3757 22.6634 50.246C22.7864 50.1164 22.9338 50.0123 23.0971 49.9396C23.2604 49.8669 23.4364 49.8271 23.6151 49.8224C23.7938 49.8177 23.9716 49.8483 24.1385 49.9124C24.3053 49.9764 24.4579 50.0727 24.5876 50.1958C24.7172 50.3188 24.8214 50.4662 24.8941 50.6295C24.9667 50.7928 25.0066 50.9688 25.0112 51.1475C25.0159 51.3262 24.9853 51.504 24.9212 51.6709ZM20.7562 49.9411C20.6037 50.2684 20.3274 50.5218 19.9881 50.6455C19.6489 50.7692 19.2744 50.7532 18.9469 50.6009C18.628 50.4431 18.3835 50.1669 18.2656 49.8312C18.1478 49.4955 18.1659 49.1271 18.3161 48.8046C18.4664 48.4821 18.7368 48.2311 19.0696 48.1054C19.4024 47.9797 19.7712 47.9892 20.0972 48.1318C20.4243 48.2845 20.6776 48.5608 20.8011 48.9C20.9247 49.2393 20.9086 49.6137 20.7562 49.9411ZM16.7171 47.933C16.6266 48.0897 16.5058 48.2268 16.3618 48.3363C16.2177 48.4459 16.0533 48.5256 15.8781 48.5709C15.7028 48.6161 15.5204 48.626 15.3413 48.6C15.1622 48.574 14.9901 48.5125 14.835 48.4192C14.6799 48.3259 14.545 48.2027 14.4381 48.0567C14.3312 47.9107 14.2544 47.7448 14.2123 47.5688C14.1702 47.3928 14.1636 47.2102 14.1929 47.0316C14.2221 46.853 14.2867 46.682 14.3828 46.5287C14.5723 46.2261 14.8731 46.01 15.2203 45.9269C15.5676 45.8438 15.9336 45.9004 16.2395 46.0845C16.5455 46.2685 16.767 46.5654 16.8563 46.9111C16.9456 47.2568 16.8956 47.6237 16.7171 47.933ZM12.8997 45.5308C12.7963 45.6801 12.6642 45.8072 12.5111 45.9047C12.3579 46.0022 12.1868 46.0681 12.0078 46.0985C11.8288 46.129 11.6456 46.1233 11.4688 46.0819C11.292 46.0405 11.1253 45.9642 10.9785 45.8574C10.8316 45.7507 10.7076 45.6156 10.6137 45.4603C10.5197 45.3049 10.4578 45.1323 10.4315 44.9527C10.4053 44.773 10.4152 44.59 10.4606 44.4142C10.5061 44.2384 10.5863 44.0735 10.6964 43.9292C10.9122 43.6463 11.2302 43.459 11.5823 43.4075C11.9344 43.356 12.2927 43.4443 12.5806 43.6536C12.8684 43.8628 13.0629 44.1764 13.1226 44.5272C13.1822 44.878 13.1022 45.2382 12.8997 45.5308ZM9.33849 42.7613C9.21209 42.8878 9.06202 42.9882 8.89682 43.0568C8.73163 43.1253 8.55455 43.1606 8.3757 43.1607C8.0145 43.1609 7.66801 43.0176 7.41246 42.7624C7.1569 42.5071 7.01322 42.1608 7.01301 41.7996C7.0128 41.4384 7.15609 41.0919 7.41135 40.8364C7.66661 40.5808 8.01294 40.4371 8.37414 40.4369C8.73534 40.4367 9.08183 40.58 9.33738 40.8353C9.59294 41.0905 9.73662 41.4368 9.73683 41.798C9.73704 42.1592 9.59375 42.5057 9.33849 42.7613ZM6.24712 39.4755C5.95153 39.6826 5.58576 39.7638 5.23029 39.7013C4.87483 39.6387 4.55877 39.4375 4.35165 39.1419C4.14453 38.8463 4.06332 38.4806 4.12588 38.1251C4.18844 37.7696 4.38964 37.4536 4.68523 37.2464C4.8316 37.1439 4.99672 37.0712 5.17119 37.0324C5.34566 36.9937 5.52605 36.9897 5.70206 37.0207C5.87807 37.0517 6.04625 37.117 6.19701 37.213C6.34777 37.3089 6.47815 37.4337 6.5807 37.58C6.68326 37.7264 6.75598 37.8915 6.79472 38.066C6.83346 38.2405 6.83745 38.4208 6.80648 38.5969C6.7755 38.7729 6.71016 38.9411 6.61418 39.0918C6.51821 39.2426 6.39348 39.373 6.24712 39.4755ZM3.82955 35.6595C3.66031 35.7176 3.48129 35.7419 3.3027 35.7308C3.12411 35.7197 2.94945 35.6736 2.78868 35.595C2.62792 35.5165 2.48421 35.407 2.36575 35.2729C2.24729 35.1388 2.15641 34.9826 2.09829 34.8134C2.04017 34.6442 2.01596 34.4652 2.02702 34.2866C2.03809 34.108 2.08423 33.9333 2.16279 33.7726C2.24136 33.6118 2.35083 33.4681 2.48494 33.3496C2.61904 33.2312 2.77517 33.1403 2.94441 33.0822C3.28619 32.9648 3.6606 32.988 3.98527 33.1467C4.30994 33.3053 4.55828 33.5865 4.67566 33.9283C4.79304 34.2701 4.76983 34.6445 4.61116 34.9691C4.45248 35.2938 4.17133 35.5421 3.82955 35.6595ZM23.0626 22.8257C23.6186 23.1468 23.972 23.4958 24.109 23.6203C24.3601 23.8493 24.7939 24.2469 25.1863 24.6903C25.4801 25.0181 25.7529 25.3641 26.003 25.7264C26.5884 26.5946 26.8624 27.6115 26.8624 28.4422C26.8624 29.5961 26.249 31.2935 25.2129 32.0372L25.922 32.7471C26.7269 33.499 27.3101 34.6529 27.3101 36.2847C27.3101 38.5396 25.5082 41.3592 22.8292 41.3592H16.5559L14.9247 39.7318V22.2027H20.7503C21.6723 22.2027 22.4389 22.4413 23.0626 22.8257ZM20.1406 33.5174V36.9644H20.3019C21.4389 36.9644 22.0942 35.7148 22.0942 34.4275C22.0942 34.108 22.0486 33.8009 21.9661 33.5188L20.1406 33.5174ZM20.1406 26.5975V29.1042C21.1001 28.9805 21.6458 28.2205 21.6458 27.046C21.6458 26.8891 21.634 26.7411 21.6134 26.6019L21.4845 26.5975H20.1406ZM18.0014 37.4725V31.3818H20.3026C21.6531 31.3818 22.6038 32.9297 22.6038 34.4275C22.6038 35.7729 21.9006 37.4733 20.3026 37.4733L18.0014 37.4725ZM18.0014 29.63V24.4612H19.8541C21.0824 24.4612 22.1554 25.4001 22.1554 27.0452C22.1554 28.5357 21.3439 29.6292 19.8541 29.6292L18.0014 29.63ZM25.1709 34.658C25.1709 32.6779 24.2445 31.524 23.1952 30.9533L22.4205 30.5313L23.1738 30.0725C24.0899 29.5143 24.7224 27.9208 24.7224 26.8162C24.7224 25.1328 23.5 22.7116 20.7496 22.7116H15.4329V39.2237H21.1981C23.4949 39.2237 25.1709 36.7457 25.1709 34.658ZM32.6673 22.2027L34.2992 23.8302V36.4313L34.3029 36.5454L34.4597 36.5513C35.5238 36.5513 36.2521 35.7508 36.2521 34.8038V22.2027H39.8368L41.4687 23.8302V36.4313C41.4687 39.3702 38.9944 41.7775 36.0916 41.7775C34.836 41.7775 33.5333 41.2576 32.2454 40.2958C31.3463 39.6243 30.456 38.4762 30.291 38.1493C29.5126 37.2079 29.0854 36.0253 29.0826 34.8038V22.2027H32.6673ZM36.7602 22.7108V34.8038C36.7602 36.0262 35.8103 37.0594 34.4597 37.0594C33.1084 37.0594 32.1592 36.0255 32.1592 34.8038L32.1585 22.7108H29.5907V34.8038C29.5907 37.4571 31.8315 39.6412 34.4597 39.6412C37.0879 39.6412 39.328 37.4563 39.328 34.8038V22.7108H36.7602ZM51.7715 22.3198C52.1931 22.5141 52.5913 22.7554 52.9586 23.0393C53.4019 23.3802 53.8747 23.7712 54.3592 24.3368C54.7383 24.7796 55.07 25.2609 55.3489 25.7727C55.7981 26.6004 56.0183 27.6137 56.0183 28.7588V29.1219H52.8813L51.2502 27.4944V27.1314C51.2502 26.9988 51.2399 26.8707 51.2207 26.7463C51.044 26.6957 50.8598 26.677 50.6765 26.691C49.6051 26.7845 48.8488 27.6977 48.8488 28.7596V36.4335C48.8488 36.5373 48.8584 36.6404 48.876 36.7428C48.932 36.7531 48.988 36.7597 49.0454 36.7649C50.3157 36.876 51.2038 36.1073 51.2487 34.9003H51.0705L49.4394 33.2729V30.5063H54.3872L56.019 32.1344V36.432C56.019 39.6198 54.3246 41.7782 50.6772 41.7782C49.3532 41.7782 48.094 41.2664 46.7957 40.2958C45.904 39.6301 45.0336 38.4858 44.8053 38.0881C44.0511 37.1596 43.6376 36.0008 43.6337 34.8046V27.1306C43.6337 24.191 46.1433 21.7837 49.0461 21.7837C50.122 21.7837 51.0285 21.9722 51.7715 22.3198ZM51.7553 26.9856H53.8776C53.829 24.1299 52.3268 22.2933 49.0454 22.2933C46.4128 22.2933 44.141 24.4826 44.141 27.1314V34.8038C44.141 37.4526 46.4128 39.6434 49.0454 39.6434C52.382 39.6434 53.8783 37.742 53.8783 34.8038V31.0144L49.9475 31.0136V32.7633H51.759V34.8031C51.759 36.3775 50.5882 37.4099 49.0005 37.2715C47.6581 37.1529 46.7088 36.0071 46.7088 34.8053V27.1306C46.7088 25.8147 47.6448 24.6755 49.0005 24.5562C50.5734 24.4185 51.6861 25.5209 51.7553 26.9856ZM64.8704 30.3244L64.1687 33.4275H65.4993L64.8704 30.3244ZM66.4537 38.1301H63.1053L62.3748 41.3592H58.6575L57.0264 39.7318L61.5081 22.202H66.4367L68.0679 23.8294L72.2461 41.3592H68.4103L66.7777 39.7318L66.4537 38.1301ZM64.4227 25.5614L66.1216 33.9364H61.5324L63.4279 25.5504L64.4227 25.5614ZM61.9013 22.7108L57.6803 39.2237H60.3365L61.067 35.9939H66.5384L67.193 39.2237H69.8308L66.031 22.7108H61.9013ZM74.7882 27.0592H72.8353L71.2027 25.4318V22.2027H81.9577L83.5888 23.8302V27.0592H80.0047V41.3923H76.4193L74.7882 39.7649V27.0592ZM75.2963 39.2568H77.8648V24.923H81.4488V22.7108H71.7115V24.923H75.2955L75.2963 39.2568ZM95.0765 22.2027L96.7076 23.8302V27.0592H93.1235V41.3923H89.5381L87.907 39.7649V27.0592H85.954L84.3215 25.4318V22.2027H95.0765ZM88.4143 39.2568H90.9829V24.923H94.5669V22.7108H84.8296V24.923H88.4136L88.4143 39.2568ZM101.42 22.2027L103.053 23.8302V41.3599H99.4676L97.8365 39.7325V22.2027H101.42ZM100.913 22.7108H98.3446V39.2237H100.913V22.7108ZM56.072 14.4957V15.1893H54.3106V11.7195H56.072V12.4131H57.7547V9.93003H53.5175V10.8115H51.7553V8.16785H62.9205C63.5285 8.16761 64.1238 8.3426 64.6349 8.67187C65.1461 9.00115 65.5515 9.47076 65.8027 10.0245C66.0539 10.5782 66.1402 11.1926 66.0513 11.7941C65.9623 12.3956 65.7019 12.9588 65.3012 13.4161C65.7577 13.8843 66.0659 14.4768 66.1873 15.1193C66.3087 15.7618 66.2379 16.4258 65.9838 17.0283C65.7297 17.6308 65.3035 18.145 64.7586 18.5064C64.2138 18.8679 63.5744 19.0607 62.9205 19.0605H51.7553V16.4169H53.5175V17.2976H57.7547V14.4942H56.072V14.4957ZM62.9197 12.4131C63.6922 12.4131 64.1628 11.8572 64.1628 11.1716C64.1628 10.486 63.6922 9.93003 62.9197 9.93003H60.078V12.4131H62.9197ZM62.9197 17.2984C63.7968 17.2984 64.3218 16.671 64.3218 15.897C64.3218 15.1231 63.7968 14.4957 62.9197 14.4957H60.078V17.2991L62.9197 17.2984Z" fill="#02183C"/>
</g>
</svg>
